<svg width="391" height="87" viewBox="0 0 391 87" fill="none" xmlns="http://www.w3.org/2000/svg">
<rect width="391" height="87" fill="black"/>
<path d="M191.796 33.084C194.558 33.084 196.796 35.3225 196.796 38.084V59.6186C196.796 62.38 194.558 64.6186 191.796 64.6186H190.882C188.12 64.6186 185.882 62.38 185.882 59.6186V38.084C185.882 35.3225 188.12 33.084 190.882 33.084H191.796ZM185.158 25.2049C185.158 24.3607 185.319 23.5768 185.641 22.8532C185.962 22.0894 186.404 21.4261 186.967 20.8633C187.53 20.3005 188.173 19.8583 188.897 19.5367C189.661 19.2151 190.465 19.0543 191.309 19.0543C192.153 19.0543 192.937 19.2151 193.661 19.5367C194.424 19.8583 195.088 20.3005 195.65 20.8633C196.213 21.4261 196.655 22.0894 196.977 22.8532C197.299 23.5768 197.459 24.3607 197.459 25.2049C197.459 26.0491 197.299 26.8531 196.977 27.6169C196.655 28.3405 196.213 28.9837 195.65 29.5465C195.088 30.1093 194.424 30.5515 193.661 30.8731C192.937 31.1947 192.153 31.3555 191.309 31.3555C190.465 31.3555 189.661 31.1947 188.897 30.8731C188.173 30.5515 187.53 30.1093 186.967 29.5465C186.404 28.9837 185.962 28.3405 185.641 27.6169C185.319 26.8531 185.158 26.0491 185.158 25.2049Z" fill="#159C47"/>
<path d="M156.747 48.9088C156.747 49.9138 156.927 50.8585 157.289 51.7429C157.651 52.5871 158.133 53.3308 158.736 53.974C159.38 54.6172 160.123 55.1197 160.968 55.4815C161.852 55.8433 162.797 56.0242 163.802 56.0242C164.766 56.0242 165.671 55.8433 166.515 55.4815C167.4 55.1197 168.143 54.6172 168.746 53.974C169.389 53.3308 169.892 52.5871 170.254 51.7429C170.656 50.8987 170.857 49.9942 170.857 49.0294C170.857 48.0646 170.656 47.1601 170.254 46.3159C169.892 45.4315 169.389 44.6677 168.746 44.0245C168.143 43.3813 167.4 42.8788 166.515 42.517C165.671 42.1552 164.766 41.9743 163.802 41.9743C162.837 41.9743 161.912 42.1552 161.028 42.517C160.184 42.8788 159.44 43.3813 158.797 44.0245C158.194 44.6677 157.691 45.4114 157.289 46.2556C156.927 47.0596 156.747 47.944 156.747 48.9088ZM170.495 21.4172C170.495 20.3126 171.39 19.4172 172.495 19.4172H179.47C180.574 19.4172 181.47 20.3126 181.47 21.4172V62.4662C181.47 63.5707 180.574 64.4662 179.47 64.4662H171.384C170.893 64.4662 170.495 64.0681 170.495 63.5772C170.495 62.7353 169.368 62.3144 168.72 62.8508C166.639 64.5709 164.075 65.431 161.028 65.431C158.777 65.431 156.706 65.0089 154.817 64.1647C152.928 63.3205 151.279 62.1547 149.872 60.6673C148.465 59.1799 147.36 57.4312 146.556 55.4212C145.792 53.4112 145.41 51.2404 145.41 48.9088C145.41 46.6978 145.772 44.6074 146.496 42.6376C147.259 40.6276 148.325 38.8789 149.691 37.3915C151.058 35.9041 152.686 34.7383 154.576 33.8941C156.505 33.0097 158.616 32.5675 160.907 32.5675C162.93 32.5675 164.77 32.9373 166.428 33.6768C168.082 34.4148 170.495 33.3726 170.495 31.561V21.4172Z" fill="white"/>
<path d="M117.481 48.9088C117.481 49.9138 117.662 50.8585 118.024 51.7429C118.385 52.5871 118.868 53.3308 119.471 53.974C120.114 54.6172 120.858 55.1197 121.702 55.4815C122.586 55.8433 123.531 56.0242 124.536 56.0242C125.501 56.0242 126.405 55.8433 127.25 55.4815C128.134 55.1197 128.878 54.6172 129.481 53.974C130.124 53.3308 130.626 52.5871 130.988 51.7429C131.39 50.8987 131.591 49.9942 131.591 49.0294C131.591 48.0646 131.39 47.1601 130.988 46.3159C130.626 45.4315 130.124 44.6677 129.481 44.0245C128.878 43.3813 128.134 42.8788 127.25 42.517C126.405 42.1552 125.501 41.9743 124.536 41.9743C123.531 41.9743 122.586 42.1552 121.702 42.517C120.858 42.8788 120.114 43.3813 119.471 44.0245C118.868 44.6677 118.385 45.4114 118.024 46.2556C117.662 47.0596 117.481 47.944 117.481 48.9088ZM131.229 34.4052C131.229 33.9231 131.62 33.5323 132.102 33.5323H140.204C141.309 33.5323 142.204 34.4277 142.204 35.5323V62.4662C142.204 63.5708 141.309 64.4662 140.204 64.4662H132.118C131.627 64.4662 131.229 64.0682 131.229 63.5772C131.229 62.7353 130.103 62.3144 129.454 62.8508C127.373 64.5709 124.809 65.431 121.762 65.431C119.511 65.431 117.441 65.029 115.551 64.225C113.662 63.3808 112.014 62.215 110.607 60.7276C109.2 59.2402 108.094 57.4915 107.29 55.4815C106.526 53.4715 106.145 51.2806 106.145 48.9088C106.145 46.6978 106.526 44.6074 107.29 42.6376C108.054 40.6276 109.119 38.8789 110.486 37.3915C111.853 35.9041 113.481 34.7383 115.37 33.8941C117.26 33.0097 119.35 32.5675 121.642 32.5675C124.715 32.5675 127.367 33.4215 129.599 35.1296C130.227 35.6101 131.229 35.1958 131.229 34.4052Z" fill="white"/>
<path d="M83.0487 37.8638C83.0487 38.9684 83.9441 39.8638 85.0487 39.8638H86.9682C91.3098 39.8638 93.4806 37.9744 93.4806 34.1956C93.4806 30.4168 91.3098 28.5274 86.9682 28.5274H85.0487C83.9441 28.5274 83.0487 29.4228 83.0487 30.5274V37.8638ZM83.0487 62.4662C83.0487 63.5708 82.1533 64.4662 81.0487 64.4662H73.2299C72.1253 64.4662 71.2299 63.5708 71.2299 62.4662V21C71.2299 19.8954 72.1253 19 73.2299 19H90.0435C95.1489 19 99.0483 20.3266 101.742 22.9798C104.475 25.633 105.842 29.3716 105.842 34.1956C105.842 39.0196 104.475 42.7582 101.742 45.4114C99.0483 48.0646 95.1489 49.3912 90.0435 49.3912H85.0487C83.9441 49.3912 83.0487 50.2866 83.0487 51.3912V62.4662Z" fill="white"/>
<path d="M367.908 50.1273C367.892 50.9939 367.184 51.6878 366.318 51.6878H349.483C348.319 51.6878 347.375 52.6883 347.68 53.8112C348.057 55.1993 348.705 56.366 349.624 57.3115C350.978 58.6855 352.715 59.3725 354.835 59.3725C356.484 59.3725 357.848 58.9799 358.928 58.1948C359.704 57.62 360.559 56.6874 361.492 55.3972C362.113 54.5399 363.27 54.2395 364.195 54.7551L366.359 55.9624C367.338 56.5088 367.685 57.7602 367.045 58.6813C366.515 59.4437 365.969 60.1354 365.405 60.7564C364.443 61.7967 363.413 62.6604 362.314 63.3474C361.215 64.0147 360.027 64.5055 358.751 64.8195C357.475 65.1336 356.091 65.2906 354.6 65.2906C350.32 65.2906 346.885 63.9166 344.294 61.1686C341.703 58.4009 340.408 54.7303 340.408 50.1567C340.408 45.6225 341.664 41.9519 344.177 39.1449C346.709 36.3772 350.065 34.9934 354.246 34.9934C358.466 34.9934 361.803 36.338 364.257 39.0271C366.691 41.6967 367.908 45.3967 367.908 50.1273ZM358.488 46.2702C359.798 46.2702 360.781 45.0002 360.099 43.8822C358.914 41.941 357.012 40.9704 354.393 40.9704C353.589 40.9704 352.833 41.098 352.126 41.3532C351.42 41.5887 350.772 41.942 350.183 42.4131C349.614 42.8646 349.123 43.4142 348.711 44.062C348.056 45.0904 348.96 46.2702 350.179 46.2702H358.488Z" fill="white"/>
<path d="M324.033 37.7884C324.033 36.6838 324.928 35.7884 326.033 35.7884H329.925C330.33 35.7884 330.658 36.1163 330.658 36.5208C330.658 37.1818 331.476 37.5151 331.973 37.0803C332.668 36.4735 333.309 36.0233 333.896 35.7295C334.858 35.2388 335.997 34.9934 337.312 34.9934C338.549 34.9934 339.826 35.2789 341.141 35.8499C342.101 36.2663 342.427 37.4244 341.959 38.3602L340.805 40.6667C340.255 41.7681 338.856 42.0615 337.686 41.6785C337.143 41.5009 336.606 41.4121 336.075 41.4121C332.463 41.4121 330.658 44.1405 330.658 49.5973V62.4662C330.658 63.5708 329.762 64.4662 328.658 64.4662H326.033C324.928 64.4662 324.033 63.5708 324.033 62.4662V37.7884Z" fill="white"/>
<path d="M313.429 36.7451C313.429 36.2167 313.857 35.7884 314.385 35.7884H318.083C319.187 35.7884 320.083 36.6838 320.083 37.7884V62.4662C320.083 63.5708 319.187 64.4662 318.083 64.4662H314.338C313.836 64.4662 313.429 64.0593 313.429 63.5574C313.429 62.7623 312.461 62.3325 311.82 62.8024C309.556 64.4612 307.157 65.2906 304.625 65.2906C300.66 65.2906 297.382 63.8577 294.791 60.9919C292.22 58.0672 290.934 54.4162 290.934 50.039C290.934 45.7402 292.22 42.158 294.791 39.2921C297.362 36.4263 300.582 34.9934 304.448 34.9934C307.067 34.9934 309.473 35.8392 311.668 37.5309C312.35 38.0563 313.429 37.6058 313.429 36.7451ZM297.706 50.039C297.706 52.787 298.442 55.0247 299.914 56.7521C301.426 58.499 303.33 59.3725 305.626 59.3725C308.08 59.3725 310.062 58.5285 311.574 56.8404C313.085 55.0934 313.841 52.8753 313.841 50.1862C313.841 47.497 313.085 45.279 311.574 43.532C310.062 41.8243 308.099 40.9704 305.685 40.9704C303.408 40.9704 301.504 41.8341 299.973 43.5614C298.462 45.3084 297.706 47.4676 297.706 50.039Z" fill="white"/>
<path d="M268.466 35.7883C269.571 35.7883 270.466 36.6838 270.466 37.7883V52.2472C270.466 56.9974 272.341 59.3725 276.09 59.3725C279.839 59.3725 281.714 56.9974 281.714 52.2472V37.7883C281.714 36.6838 282.609 35.7883 283.714 35.7883H286.338C287.443 35.7883 288.338 36.6838 288.338 37.7883V52.3944C288.338 54.691 288.054 56.6735 287.485 58.3419C286.935 59.8337 285.983 61.1783 284.629 62.3757C282.391 64.3189 279.545 65.2906 276.09 65.2906C272.655 65.2906 269.819 64.3189 267.581 62.3757C266.207 61.1783 265.235 59.8337 264.666 58.3419C264.116 57.0072 263.842 55.0247 263.842 52.3944V37.7883C263.842 36.6838 264.737 35.7883 265.842 35.7883H268.466Z" fill="white"/>
<path d="M255.531 80.0712C254.426 80.0712 253.531 79.1758 253.531 78.0712V66.1619C253.531 64.3694 251.214 63.3698 249.598 64.1465C248.012 64.9093 246.319 65.2906 244.521 65.2906C240.654 65.2906 237.445 63.8675 234.893 61.0213C232.322 58.1555 231.036 54.5732 231.036 50.2745C231.036 45.9169 232.322 42.2757 234.893 39.351C237.484 36.4459 240.733 34.9934 244.639 34.9934C247.271 34.9934 249.681 35.8154 251.869 37.4595C252.52 37.9488 253.531 37.5169 253.531 36.7025C253.531 36.1976 253.94 35.7884 254.445 35.7884H258.185C259.29 35.7884 260.185 36.6838 260.185 37.7884V78.0712C260.185 79.1758 259.29 80.0712 258.185 80.0712H255.531ZM237.808 49.9801C237.808 52.7478 238.554 54.9953 240.046 56.7226C241.538 58.4892 243.432 59.3725 245.728 59.3725C248.162 59.3725 250.135 58.5285 251.646 56.8404C253.178 55.1327 253.943 52.9146 253.943 50.1862C253.943 47.497 253.187 45.279 251.676 43.532C250.164 41.8243 248.202 40.9704 245.787 40.9704C243.51 40.9704 241.606 41.8341 240.075 43.5614C238.564 45.3084 237.808 47.448 237.808 49.9801Z" fill="white"/>
<path d="M225.903 24.0364C226.957 25.3222 226.449 27.1924 225.012 28.0281L224.635 28.247C223.207 29.0776 221.441 28.5356 220.322 27.3199C219.898 26.8598 219.484 26.5137 219.079 26.2817C218.097 25.6652 216.831 25.357 215.28 25.357C213.376 25.357 211.796 25.8868 210.54 26.9463C209.284 27.9865 208.656 29.2964 208.656 30.8761C208.656 33.0529 210.305 34.8058 213.602 36.135L218.137 37.9555C221.827 39.4195 224.526 41.211 226.233 43.33C227.941 45.4298 228.795 48.0111 228.795 51.074C228.795 55.1772 227.401 58.5676 224.614 61.2452C221.807 63.9422 218.323 65.2906 214.162 65.2906C210.216 65.2906 206.958 64.1444 204.386 61.8521C202.443 60.0928 201.061 57.7834 200.239 54.9238C199.801 53.402 200.851 51.9115 202.399 51.5768L203.374 51.3659C205.102 50.9923 206.715 52.2067 207.215 53.9022C207.495 54.8513 207.838 55.5845 208.244 56.1018C209.657 58.0282 211.718 58.9914 214.427 58.9914C216.566 58.9914 218.343 58.2883 219.756 56.882C221.169 55.4758 221.876 53.6939 221.876 51.5364C221.876 50.6695 221.748 49.8797 221.493 49.1669C221.257 48.4349 220.875 47.7703 220.345 47.1731C219.834 46.5567 219.167 45.9884 218.343 45.4683C217.518 44.9289 216.537 44.4184 215.398 43.9368L211.011 42.1453C204.789 39.564 201.678 35.7883 201.678 30.8183C201.678 27.4664 202.983 24.6635 205.594 22.4097C208.204 20.1366 211.453 19 215.339 19C219.63 19 223.152 20.6788 225.903 24.0364Z" fill="white"/>
<g clip-path="url(#clip0_3_80)">
<rect x="20" y="19" width="45.4662" height="45.4662" rx="22.7331" fill="#159C47"/>
<g opacity="0.18">
<path d="M23.0324 22.585C24.8352 22.585 26.2966 21.0264 26.2966 19.1039C26.2966 21.0266 27.7581 22.585 29.5607 22.585C31.3635 22.585 32.825 21.0264 32.825 19.1039C32.825 21.0266 34.2864 22.585 36.0891 22.585C37.8918 22.585 39.3532 21.0264 39.3532 19.1039C39.3532 21.0266 40.8146 22.585 42.6173 22.585C44.42 22.585 45.8815 21.0264 45.8815 19.1039C45.8815 21.0266 47.3429 22.585 49.1456 22.585C50.9484 22.585 52.4097 21.0264 52.4097 19.1039C52.4097 21.0266 53.8711 22.585 55.6739 22.585C57.4767 22.585 58.938 21.0264 58.938 19.1039C58.938 21.0266 60.3994 22.585 62.2021 22.585C64.0049 22.585 65.4662 21.0264 65.4662 19.1039L65.4169 19H20.0028C20.0028 19 19.7931 22.585 23.0324 22.585Z" fill="#272525"/>
</g>
<g opacity="0.18">
<path d="M23.0324 60.8811C24.8352 60.8811 26.2966 62.4398 26.2966 64.3623C26.2966 62.4396 27.7581 60.8811 29.5607 60.8811C31.3635 60.8811 32.825 62.4398 32.825 64.3623C32.825 62.4396 34.2864 60.8811 36.0891 60.8811C37.8918 60.8811 39.3532 62.4398 39.3532 64.3623C39.3532 62.4396 40.8146 60.8811 42.6173 60.8811C44.42 60.8811 45.8815 62.4398 45.8815 64.3623C45.8815 62.4396 47.3429 60.8811 49.1456 60.8811C50.9484 60.8811 52.4097 62.4398 52.4097 64.3623C52.4097 62.4396 53.8711 60.8811 55.6739 60.8811C57.4767 60.8811 58.938 62.4398 58.938 64.3623C58.938 62.4396 60.3994 60.8811 62.2021 60.8811C64.0049 60.8811 65.4662 62.4398 65.4662 64.3623L65.4169 64.4662H20.0028C20.0028 64.4662 19.7931 60.8811 23.0324 60.8811Z" fill="#272525"/>
</g>
<path d="M39.8004 37.6566L39.4295 36.3801C39.2374 35.719 39.7333 35.0585 40.4217 35.0585H58.0506C58.7389 35.0585 59.2348 35.7187 59.043 36.3798L57.2676 42.498C57.1394 42.9396 56.735 43.2434 56.2752 43.2434H45.5975C45.1562 43.2434 44.8381 43.6666 44.9607 44.0905C45.0428 44.374 45.3024 44.5691 45.5975 44.5691H55.2913C55.9799 44.5691 56.4759 45.23 56.2834 45.8912L55.9455 47.0524C55.8171 47.4936 55.4128 47.797 54.9533 47.797H43.5207C43.0612 47.797 42.6569 47.4935 42.5286 47.0523L40.8323 41.2222C40.6399 40.5611 41.1359 39.9002 41.8245 39.9002H54.1666C54.499 39.9002 54.7916 39.6814 54.8854 39.3626C55.0268 38.8826 54.667 38.4016 54.1666 38.4016H40.7927C40.333 38.4016 39.9286 38.098 39.8004 37.6566Z" fill="white"/>
<path fill-rule="evenodd" clip-rule="evenodd" d="M34.3606 33.8438C34.2346 33.399 33.8286 33.0921 33.3664 33.0921H27.7868C27.3265 33.0921 26.9218 32.7877 26.794 32.3455L26.5564 31.5229C26.3655 30.8621 26.8613 30.2028 27.5491 30.2028H35.7208C36.1805 30.2028 36.5849 30.5064 36.7131 30.9478L40.8566 45.2114L41.2241 46.4752C41.4164 47.1363 40.9204 47.797 40.2319 47.797H32.3187C30.9323 47.797 29.8735 47.4368 29.1421 46.7163C28.3998 45.9958 28.0286 44.9806 28.0286 43.6706C28.0286 42.3607 28.3998 41.3455 29.1421 40.625C29.8735 39.9045 30.9323 39.5443 32.3187 39.5443H34.6086C35.2942 39.5443 35.7897 38.889 35.6028 38.2294L35.2429 36.9586L34.8109 35.4534C34.8105 35.4521 34.8115 35.4507 34.813 35.4507C34.8144 35.4507 34.8154 35.4494 34.815 35.448L34.3606 33.8438ZM33.1538 42.1315H36.0189C36.4791 42.1315 36.8838 42.4358 37.0116 42.8779L37.304 43.8896C37.495 44.5504 36.9992 45.2098 36.3113 45.2098H33.1538C31.9748 45.2098 30.7293 45.2098 30.7293 43.6706C30.7293 42.1051 31.7806 42.117 32.8658 42.1293C32.9617 42.1304 33.058 42.1315 33.1538 42.1315Z" fill="white"/>
<circle cx="40.2687" cy="52.025" r="2.5" fill="white"/>
<circle cx="48.4015" cy="52.025" r="2.5" fill="white"/>
</g>
<defs>
<clipPath id="clip0_3_80">
<rect x="20" y="19" width="45.4662" height="45.4662" rx="22.7331" fill="white"/>
</clipPath>
</defs>
</svg>
