<svg width="563" height="563" viewBox="0 0 563 563" fill="none" xmlns="http://www.w3.org/2000/svg">
<g opacity="0.1">
<g opacity="0.18">
<path d="M39.0792 152.807C56.3633 147.776 66.0246 128.754 60.6588 110.322C66.025 128.755 84.3863 139.618 101.669 134.586C118.953 129.555 128.615 110.533 123.249 92.1007C128.615 110.534 146.976 121.397 164.259 116.365C181.543 111.334 191.203 92.3118 185.838 73.8799C191.204 92.3131 209.565 103.176 226.848 98.1446C244.132 93.1129 253.793 74.0908 248.428 55.6589C253.794 74.092 272.155 84.9549 289.438 79.9235C306.722 74.8918 316.382 55.8701 311.016 37.4382C316.383 55.8713 334.744 66.7342 352.028 61.7025C369.312 56.6708 378.972 37.649 373.606 19.2171C378.973 37.6503 397.334 48.5131 414.617 43.4817C431.901 38.4501 441.561 19.4283 436.195 0.996401L435.432 0.137626L0.0264034 126.892C0.0264034 126.892 8.02245 161.849 39.0792 152.807Z" fill="#272525"/>
</g>
<g opacity="0.18">
<path d="M145.966 519.969C163.25 514.937 181.612 525.801 186.978 544.233C181.612 525.8 191.274 506.779 208.556 501.748C225.84 496.716 244.202 507.58 249.568 526.012C244.202 507.579 253.864 488.558 271.146 483.527C288.43 478.495 306.791 489.359 312.157 507.791C306.791 489.358 316.452 470.337 333.735 465.306C351.019 460.274 369.381 471.138 374.747 489.57C369.381 471.137 379.042 452.116 396.325 447.085C413.609 442.053 431.97 452.918 437.336 471.35C431.969 452.916 441.631 433.896 458.915 428.864C476.199 423.832 494.56 434.697 499.926 453.129C494.559 434.695 504.221 415.675 521.504 410.643C538.788 405.611 557.149 416.476 562.515 434.908L562.332 436.042L126.926 562.796C126.926 562.796 114.91 529.01 145.966 519.969Z" fill="#272525"/>
</g>
<path d="M245.554 256.444L227.718 228.312C227.433 227.863 227.659 227.266 228.169 227.118L421.999 170.691C422.509 170.542 423.019 170.924 423.02 171.455L423.179 255.405C423.18 255.76 422.945 256.074 422.604 256.173L305.649 290.221C305.139 290.369 304.913 290.965 305.197 291.414L311.719 301.727C311.91 302.027 312.276 302.166 312.617 302.066L422.203 270.164C422.713 270.015 423.223 270.398 423.224 270.93L423.259 303.037C423.26 303.393 423.025 303.705 422.684 303.805L299.059 339.794C298.718 339.893 298.352 339.755 298.162 339.455L254.793 271.101C254.508 270.652 254.734 270.056 255.244 269.907L390.881 230.421C391.221 230.322 391.455 230.01 391.456 229.656L391.485 215.626C391.486 215.094 390.975 214.709 390.464 214.858L246.451 256.783C246.11 256.882 245.744 256.744 245.554 256.444Z" fill="white"/>
<path fill-rule="evenodd" clip-rule="evenodd" d="M175.291 223.033C175.102 222.731 174.735 222.591 174.392 222.69L107.113 242.277C106.771 242.376 106.405 242.238 106.215 241.937L91.0372 217.97C90.753 217.521 90.9784 216.925 91.4884 216.776L188.853 188.432C189.194 188.333 189.559 188.47 189.75 188.77L268.629 312.923L286.974 341.781C287.26 342.23 287.035 342.827 286.524 342.975L198.48 368.607C185.188 372.476 174.03 371.978 165.007 367.112C155.88 362.276 149.488 353.578 145.832 341.019C142.175 328.46 142.9 317.691 148.006 308.712C153.007 299.763 162.154 293.354 175.446 289.484L209.487 279.574C209.996 279.426 210.222 278.833 209.941 278.384L195.926 255.997L187.921 243.306C187.914 243.295 187.92 243.279 187.933 243.276V243.276C187.945 243.272 187.951 243.257 187.944 243.245L175.291 223.033ZM190.673 311.958L225.015 301.96C225.356 301.861 225.722 301.999 225.912 302.299L242.146 327.926C242.43 328.375 242.205 328.971 241.695 329.12L199.265 341.472C187.962 344.762 176.021 348.238 171.725 333.481C167.355 318.472 177.468 315.652 187.905 312.741C188.829 312.483 189.754 312.225 190.673 311.958Z" fill="white"/>
<circle cx="286.188" cy="387.284" r="25" transform="rotate(-16.2312 286.188 387.284)" fill="white"/>
<circle cx="364.92" cy="364.364" r="25" transform="rotate(-16.2312 364.92 364.364)" fill="white"/>
</g>
</svg>
